<svg width="26" height="24" viewBox="0 0 26 24" fill="none" xmlns="http://www.w3.org/2000/svg">
<g clip-path="url(#clip0_1212_22)">
<path d="M25.843 11.3156C23.3951 6.35578 18.549 3 13 3C7.45111 3 2.60365 6.35813 0.15712 11.3161C0.0538608 11.5282 6.10352e-05 11.7626 6.10352e-05 12.0002C6.10352e-05 12.2379 0.0538608 12.4723 0.15712 12.6844C2.605 17.6442 7.45111 21 13 21C18.549 21 23.3964 17.6419 25.843 12.6839C25.9462 12.4718 26 12.2374 26 11.9998C26 11.7621 25.9462 11.5277 25.843 11.3156ZM13 18.75C11.7145 18.75 10.4577 18.3541 9.38883 17.6124C8.31991 16.8707 7.48679 15.8165 6.99482 14.5831C6.50285 13.3497 6.37413 11.9925 6.62493 10.6831C6.87574 9.37377 7.4948 8.17103 8.40384 7.22703C9.31288 6.28302 10.4711 5.64015 11.7319 5.3797C12.9928 5.11925 14.2998 5.25292 15.4875 5.76381C16.6752 6.2747 17.6904 7.13987 18.4046 8.2499C19.1188 9.35993 19.5 10.665 19.5 12C19.5005 12.8865 19.3326 13.7645 19.0061 14.5836C18.6796 15.4028 18.2008 16.1471 17.5972 16.7739C16.9935 17.4008 16.2768 17.898 15.488 18.2371C14.6992 18.5761 13.8537 18.7504 13 18.75ZM13 7.5C12.6133 7.50561 12.229 7.56537 11.8576 7.67766C12.1637 8.10969 12.3106 8.64135 12.2717 9.17622C12.2327 9.71109 12.0104 10.2138 11.6452 10.593C11.2799 10.9723 10.7959 11.2031 10.2808 11.2436C9.76578 11.2841 9.25381 11.1315 8.83778 10.8136C8.60087 11.72 8.64364 12.6807 8.96005 13.5605C9.27647 14.4403 9.85059 15.1949 10.6016 15.7181C11.3527 16.2413 12.2428 16.5068 13.1467 16.4771C14.0507 16.4475 14.9229 16.1242 15.6406 15.5528C16.3583 14.9814 16.8855 14.1907 17.1478 13.2919C17.4101 12.3931 17.3944 11.4315 17.1028 10.5425C16.8113 9.65342 16.2587 8.8817 15.5227 8.33593C14.7867 7.79015 13.9044 7.49779 13 7.5Z" fill="#A8A8A8"/>
</g>
<defs>
<clipPath id="clip0_1212_22">
<rect width="26" height="24" fill="white"/>
</clipPath>
</defs>
</svg>
